<svg xmlns="http://www.w3.org/2000/svg" viewBox="0 0 409.45 128.76"><g id="Layer_2" data-name="Layer 2"><g id="background"><line x1="46.3" y1="73.24" x2="24.33" y2="73.24" style="fill:none;stroke:#000;stroke-miterlimit:10;stroke-width:1.4173228346456692px"/><line x1="9.14" y1="93.58" x2="42.12" y2="93.58" style="fill:none;stroke:#000;stroke-miterlimit:10;stroke-width:1.4173228346456692px"/><line x1="101.13" y1="73.24" x2="294.45" y2="73.24" style="fill:none;stroke:#000;stroke-miterlimit:10;stroke-width:1.4173228346456692px"/><line x1="104.91" y1="93.48" x2="289.6" y2="93.48" style="fill:none;stroke:#000;stroke-miterlimit:10;stroke-width:1.4173228346456692px"/><line x1="347.36" y1="73.24" x2="395.77" y2="73.24" style="fill:none;stroke:#000;stroke-miterlimit:10;stroke-width:1.4173228346456692px"/><line x1="351.28" y1="93.48" x2="403.61" y2="93.48" style="fill:none;stroke:#000;stroke-miterlimit:10;stroke-width:1.4173228346456692px"/><path d="M35.32,93.48s3.44-16.35,13.29-22.62S63.4,62.8,74.15,62.35s22.17,6.89,26,9.83,11.43,15.48,12.1,21.3" style="fill:none;stroke:#000;stroke-miterlimit:10;stroke-width:1.4173228346456692px"/><path d="M359.26,93.48S354.11,76,344,70s-16.8-8.74-31.8-6.5-25.59,19.61-25.59,19.61" style="fill:none;stroke:#000;stroke-miterlimit:10;stroke-width:1.4173228346456692px"/><rect x="90.58" y="55.06" width="7.26" height="5.09" rx="1.1" style="fill:#ffcb00;stroke:#000;stroke-miterlimit:10;stroke-width:1.4173228346456692px"/><rect x="195.91" y="54.44" width="16.58" height="6" rx="1.8" style="fill:#999;stroke:#000;stroke-miterlimit:10;stroke-width:1.4173228346456692px"/><rect x="286.64" y="54.61" width="16.58" height="6" rx="1.8" style="fill:#999;stroke:#000;stroke-miterlimit:10;stroke-width:1.4173228346456692px"/><path d="M128,39.57h87.91l2.7-33.9s-29.71.29-36.16,1.9S128,39.57,128,39.57Z" style="fill:#f0ffeb;stroke:#000;stroke-miterlimit:10;stroke-width:1.4173228346456692px"/><path d="M299.22,39.57H225.56l1.86-33.9,42,.55s2.92-.47,10.86,7S299.22,39.57,299.22,39.57Z" style="fill:#f0ffeb;stroke:#000;stroke-miterlimit:10;stroke-width:1.4173228346456692px"/><line x1="285.44" y1="39.03" x2="285.44" y2="19.53" style="fill:none;stroke:#000;stroke-miterlimit:10;stroke-width:1.4173228346456692px"/><line x1="142.43" y1="39.57" x2="142.43" y2="30.55" style="fill:none;stroke:#000;stroke-miterlimit:10;stroke-width:1.4173228346456692px"/><path d="M286.64,8.33a159.71,159.71,0,0,1,41.63,13.88c22.11,10.89,29.51,18,29.51,18l-41.15-.68Z" style="fill:#f0ffeb;stroke:#000;stroke-miterlimit:10;stroke-width:1.4173228346456692px"/><path d="M13.91,57.61S2.51,60.16,3.15,73.9H24.33l5.41-16.29Z" style="fill:#ffe09f;stroke:#000;stroke-miterlimit:10;stroke-width:2.8346456692913384px"/><path d="M405.44,55.89l-.76,19.54s0,0,0,0l-4.28-1.63a11.87,11.87,0,0,0-2.12-.58l-5.63-1a0,0,0,0,1,0,0l1.16-17.67s0,0,0,0l11.62,1.36A0,0,0,0,1,405.44,55.89Z" style="fill:#ff4a3f;stroke:#000;stroke-miterlimit:10;stroke-width:2.8346456692913384px"/></g><g id="bonnet"><path d="M39.22,107.47H15.47L8.78,93.25s-7.53.84-7.36-4,.67-12.71.67-12.71.17-3.35,2.84-3.35h19.4l5.52-15.89H14.13s13-6.84,23.25-9c16.39-3.51,67.73-6.85,83.78-11.37,0,0-5.85,14.89-5.68,24.25s-1,23.92,2.17,33.78,2.34,8.7,4.85,12.55H108.12l-3.18-13.86a29.22,29.22,0,0,0-7.36-13.88c-4.68-4.8-11-8.92-17.89-10.4-6.66-1.42-15,.3-21.59,3.91C50.44,77.47,44.79,85.51,42,93.81A53,53,0,0,0,39.22,107.47Z" style="fill:#fff;fill-opacity:0.1;stroke:#000;stroke-miterlimit:10;stroke-width:2.8346456692913384px"/></g><g id="door_front"><path d="M223,107.47H122.5s-7.17-10.87-7.1-33.95,5.76-36.63,5.76-36.63L165,11.2s12.67-7.42,22.54-8.09S223,1.58,223,1.58l-1.84,35.31s-1.67,13.38-2,24.59S223,107.47,223,107.47Z" style="fill:#fff;fill-opacity:0.1;stroke:#000;stroke-miterlimit:10;stroke-width:2.8346456692913384px"/></g><g id="door_back"><path d="M223,107.47s-4.94-21.42-4.34-35S220.82,40,220.82,40L223,1.58s44.16-1,51.85,1.86S309,42.08,309,42.08s4.18,7.19,4.51,8.69,1.34,5.69,0,7.53-12.58,9.91-15.9,12.33c-9.72,7.09-14,18.77-15.71,21.28s-4.18,15.56-4.18,15.56Z" style="fill:#fff;fill-opacity:0.1;stroke:#000;stroke-miterlimit:10;stroke-width:2.8346456692913384px"/></g><g id="trunk"><path d="M277.7,107.47s4-18.19,11.05-27.6,18.5-16.44,18.5-16.44,8.33-3.22,6.88-8.91-1.62-7.08-4.37-11.07-33.42-40-33.42-40,7.38,1,15.27,2.76c4.27,1,10,2.16,15,3.77a108,108,0,0,1,13.67,5.43c8.57,4.08,25.57,12.1,25.57,12.1s16.52,8.61,32,11.53,21.62,5,24.54,7.89,2.92,8.89,2.92,8.89l-11.68-1.37-1.17,17.74s10.23,1,12.85,4,3.51,11.69,1.76,14.32-2.92,4.38-6.14,4.67-1.46,12.11-7,12.34-39.74,0-39.74,0S351.88,87.4,344,78.78C338.15,72.36,332,67.9,319.09,68.19s-20.42,8.19-25,13.68c-8.42,10.19-8.26,25.7-8.26,25.7Z" style="fill:#fff;fill-opacity:0.1;stroke:#000;stroke-width:2.8346456692913384px"/></g><g id="wheels"><circle cx="74.09" cy="100.29" r="27.05" style="fill:gray;stroke:#000;stroke-miterlimit:10;stroke-width:2.8346456692913384px"/><circle cx="74.15" cy="100.34" r="16.05" style="fill:#fff;stroke:#000;stroke-miterlimit:10;stroke-width:2.8346456692913384px"/><circle cx="320.31" cy="99.08" r="27.05" style="fill:gray;stroke:#000;stroke-miterlimit:10;stroke-width:2.8346456692913384px"/><circle cx="320.37" cy="99.13" r="16.05" style="fill:#fff;stroke:#000;stroke-miterlimit:10;stroke-width:2.8346456692913384px"/></g></g></svg>