<svg width="25" height="23" viewBox="0 0 25 23" fill="none" xmlns="http://www.w3.org/2000/svg">
<path d="M22.5443 0H3.33744C2.70276 0.00288952 2.09504 0.24579 1.64625 0.67588C1.19746 1.10597 0.943933 1.68847 0.940918 2.2967V20.7033C0.943933 21.3115 1.19746 21.894 1.64625 22.3241C2.09504 22.7542 2.70276 22.9971 3.33744 23H22.5443C23.179 22.9971 23.7868 22.7542 24.2356 22.3241C24.6844 21.894 24.938 21.3115 24.941 20.7033V2.2967C24.938 1.68847 24.6844 1.10597 24.2356 0.67588C23.7868 0.24579 23.179 0.00288952 22.5443 0ZM7.97007 20.7363H4.1402V8.92308H7.97007V20.7363ZM6.05506 7.30769C5.61509 7.30769 5.18505 7.18266 4.81922 6.9484C4.45339 6.71415 4.16831 6.3812 3.99994 5.99165C3.83157 5.6021 3.78743 5.17346 3.87326 4.75992C3.9591 4.34637 4.17105 3.96651 4.48216 3.66836C4.79327 3.37022 5.18962 3.16718 5.62114 3.08492C6.05266 3.00266 6.49991 3.04488 6.90639 3.20624C7.31288 3.36759 7.6604 3.64084 7.90484 3.99142C8.14928 4.34201 8.27969 4.75418 8.27969 5.17583C8.27969 5.74123 8.04529 6.28348 7.62811 6.68328C7.21092 7.08308 6.64505 7.30769 6.05506 7.30769ZM22.338 20.7363H18.4966V14.989C18.4966 13.6154 18.4965 11.8571 16.5128 11.8571C14.529 11.8571 14.2194 13.3516 14.2194 14.8901V20.7363H10.3895V8.92308H14.0703V10.5385C14.4391 9.93445 14.9719 9.43762 15.612 9.1009C16.2522 8.76418 16.9757 8.60018 17.7054 8.62638C21.5811 8.62638 22.2921 11.0769 22.2921 14.2527L22.338 20.7363Z" fill="#D5A439"/>
</svg>
